<?xml version="1.0" encoding="utf-8"?>
<!-- Generator: Adobe Illustrator 19.2.1, SVG Export Plug-In . SVG Version: 6.00 Build 0)  -->
<svg version="1.1" id="Ebene_1" xmlns="http://www.w3.org/2000/svg" xmlns:xlink="http://www.w3.org/1999/xlink" x="0px" y="0px"
	 viewBox="0 0 100 100" style="enable-background:new 0 0 100 100;" xml:space="preserve">
<g>
	<path d="M74.2,31.1c0-0.4-0.3-0.7-0.8-0.8V20H26.7v10.3c-0.5,0.1-0.8,0.5-0.8,0.8c0,0.4,0.3,0.7,0.8,0.8V80h46.7V31.9
		C73.8,31.8,74.2,31.5,74.2,31.1z M58.2,58.1c-5.2-3-11-0.3-12.8,0.9c-1.8,1.2-5.5,2.5-10.7,3.3c-4.1,0.6-6.6,3-7.4,3.9V32h45.4
		v21.6C69.7,51.8,63.2,61,58.2,58.1z M72.7,20.6v9.5H27.3v-9.5H72.7z"/>
	<circle cx="32.6" cy="58.6" r="0.7"/>
	<circle cx="43.5" cy="51" r="0.4"/>
	<circle cx="56.2" cy="48" r="0.7"/>
	<circle cx="36.8" cy="47.2" r="0.7"/>
	<circle cx="66.4" cy="53.4" r="0.4"/>
	<circle cx="59.1" cy="55.8" r="0.4"/>
	<path d="M49.8,52.8c-0.2,0.1-0.2,0.4,0,0.5c0.1,0.2,0.4,0.2,0.5,0c0.2-0.1,0.2-0.4,0-0.5C50.1,52.6,49.9,52.6,49.8,52.8z"/>
	<circle cx="30.6" cy="49" r="0.4"/>
	<circle cx="37.5" cy="56.1" r="0.4"/>
</g>
</svg>
