<?xml version="1.0" encoding="utf-8"?>
<!-- Generator: Adobe Illustrator 19.2.1, SVG Export Plug-In . SVG Version: 6.00 Build 0)  -->
<svg version="1.1" id="Ebene_1" xmlns="http://www.w3.org/2000/svg" xmlns:xlink="http://www.w3.org/1999/xlink" x="0px" y="0px"
	 viewBox="0 0 100 100" style="enable-background:new 0 0 100 100;" xml:space="preserve">
<style type="text/css">
	.st0{fill:#231F20;}
</style>
<g>
	<path class="st0" d="M39.8,63.1v0.1c0,0.7,0.1,1.5,0.3,2.2l1-1L39.8,63.1z M39.8,63.1"/>
	<path class="st0" d="M60.2,61v-2.3L59,59.9L60.2,61z M60.2,61"/>
	<path class="st0" d="M50.3,26.9h-0.6c-5.4,0-9.9,4.4-9.9,9.9v13.6h20.3V36.7C60.2,31.3,55.7,26.9,50.3,26.9L50.3,26.9z M50.3,26.9"
		/>
	<path class="st0" d="M39.8,54l1-1l0.6,0.6l-1.6,1.6v0l1.7,1.7l-0.6,0.6l-1-1v5.9l0.3-0.3l1.7,1.7l1.6-1.6l0.6,0.6l-1.6,1.6l1.7,1.7
		l-0.6,0.6L41.7,65l-1.4,1.4c0.4,1.3,1.1,2.5,2.1,3.5l0.8-0.8l-1.7-1.7l0.6-0.6l1.7,1.7l1.6-1.6l0.6,0.6l-1.6,1.6l1.7,1.7l-0.6,0.6
		l-1.7-1.7L43,70.5c1.8,1.7,4.2,2.6,6.6,2.6h0.6c2.1,0,4.1-0.7,5.8-1.9l-1.5-1.5L53,71.3l-0.6-0.6l1.6-1.6l-1.7-1.7l0.6-0.6l1.7,1.7
		l1.6-1.6l0.6,0.6l-1.6,1.6l1.6,1.6c0.6-0.5,1.1-1.1,1.5-1.7l-1.5-1.5l0.6-0.6l1.4,1.4c0.3-0.5,0.5-1,0.7-1.5L57.9,65l-1.6,1.6
		L55.7,66l1.6-1.6l-1.7-1.7l0.6-0.6l1.7,1.7l1.6-1.6l0.6,0.6l-1.6,1.6l1.3,1.3c0.2-0.8,0.3-1.6,0.3-2.4v-1.2l-0.1,0.1l-1.7-1.7
		l-1.6,1.6l-0.6-0.6l1.6-1.6l-1.7-1.7l0.6-0.6l1.7,1.7l1.6-1.6l0.1,0.1v-1.4l-1,1l-0.6-0.6l1.6-1.6l-1.7-1.7l0.6-0.6l1,1v-2.4H39.8
		V54z M42.9,60.5l-1.6,1.6l-0.6-0.6l1.6-1.6l-1.7-1.7l0.6-0.6l1.7,1.7l1.6-1.6l0.6,0.6l-1.6,1.6l1.7,1.7l-0.6,0.6L42.9,60.5z
		 M45.5,66.6L44.9,66l1.6-1.6l-1.7-1.7l0.6-0.6l1.7,1.7l1.6-1.6l0.6,0.6l-1.6,1.6l1.7,1.7l-0.6,0.6L47.1,65L45.5,66.6z M50.6,61.5
		l-0.6,0.6l-1.7-1.7l-1.6,1.6l-0.6-0.6l1.6-1.6L46,58.2l0.6-0.6l1.7,1.7l1.6-1.6l0.6,0.6l-1.6,1.6L50.6,61.5z M50.8,71.4l-1.7-1.7
		l-1.6,1.6L47,70.7l1.6-1.6l-1.7-1.7l0.6-0.6l1.7,1.7l1.6-1.6l0.6,0.6l-1.6,1.6l1.7,1.7L50.8,71.4z M54.1,66.7L52.5,65l-1.6,1.6
		L50.3,66l1.6-1.6l-1.7-1.7l0.6-0.6l1.7,1.7l1.6-1.6l0.6,0.6l-1.6,1.6l1.7,1.7L54.1,66.7z M55.4,62.1l-1.7-1.7l-1.6,1.6l-0.6-0.6
		l1.6-1.6l-1.7-1.7l0.6-0.6l1.7,1.7l1.6-1.6l0.6,0.6l-1.6,1.6l1.7,1.7L55.4,62.1z M53.8,52.9l1.7,1.7l1.6-1.6l0.6,0.6l-1.6,1.6
		l1.7,1.7l-0.6,0.6l-1.7-1.7l-1.6,1.6l-0.6-0.6l1.6-1.6l-1.7-1.7L53.8,52.9z M48.3,52.9l1.7,1.7l1.6-1.6l0.6,0.6l-1.6,1.6l1.7,1.7
		l-0.6,0.6L50,55.8l-1.6,1.6l-0.6-0.6l1.6-1.6l-1.7-1.7L48.3,52.9z M43,52.9l1.7,1.7l1.6-1.6l0.6,0.6l-1.6,1.6l1.7,1.7l-0.6,0.6
		l-1.7-1.7l-1.6,1.6l-0.6-0.6l1.6-1.6l-1.7-1.7L43,52.9z M43,52.9"/>
</g>
</svg>
