<svg id="Ebene_1" data-name="Ebene 1" xmlns="http://www.w3.org/2000/svg" width="93.46" height="67.41" viewBox="0 0 93.46 67.41"><defs><style>.cls-1{fill:gray;}</style></defs><title>logo</title><path class="cls-1" d="M27.44,19.3h6.28V39.48h0.15c2.07-4.58,7.46-6.5,12-6.5,10.05,0,13.16,5.77,13.16,14V72.07H52.79V46.2c0-4.66-3-7.69-7.76-7.69-7.61,0-11.31,5.1-11.31,12V72.07H27.44V19.3Z" transform="translate(-4.95 -19.3)"/><path d="M5,33.86h6.28V39h0.15C13.45,34.82,18.33,33,23.58,33c11.75,0,17.59,9.31,17.59,20.1S35.4,73,23.73,73c-3.92,0-9.53-1.48-12.34-6H11.23V86.71H5V33.86Zm17.74,4.66C14.27,38.52,11,45.76,11,52.93c0,7.54,3.4,14.49,12,14.49S34.52,60.1,34.52,52.63C34.52,45.46,30.82,38.52,22.69,38.52Z" transform="translate(-4.95 -19.3)"/><path d="M65.15,19.3h6.28V50.56l17.44-16.7H97.3L82.15,47.76,98.41,72.07h-8l-13.08-20-5.91,5.47V72.07H65.15V19.3Z" transform="translate(-4.95 -19.3)"/></svg>